<?xml version="1.0" encoding="UTF-8" standalone="no"?>
<svg width="194px" height="154px" viewBox="0 0 194 154" version="1.1" xmlns="http://www.w3.org/2000/svg" xmlns:xlink="http://www.w3.org/1999/xlink" xmlns:sketch="http://www.bohemiancoding.com/sketch/ns">
    <!-- Generator: Sketch 3.2.2 (9983) - http://www.bohemiancoding.com/sketch -->
    <title>Slice 1</title>
    <desc>Created with Sketch.</desc>
    <defs></defs>
    <g id="Page-1" stroke="none" stroke-width="1" fill="none" fill-rule="evenodd" sketch:type="MSPage">
        <path d="M164.164228,58.3304338 C164.164228,58.3304338 64.6811408,46.1552805 61.5003909,44.9657462 C58.319641,43.776212 15.3149232,24.5084607 0,0 C0,0 67.9897191,17.0333194 105.992813,26.9578198 C143.995907,36.8823203 148.866983,36.6444135 152.835781,40.8050799 C156.804579,44.9657462 164.164228,58.3304338 164.164228,58.3304338 Z M175.572227,79.8150444 C154.719209,80.6659669 97.4446326,83.647913 92.6667084,82.5259659 C87.8887842,81.4040189 65.9431057,77.3305399 36.8410799,48.1680265 C36.8410799,48.1680265 149.238909,61.5563696 159.578726,63.1750824 C169.918543,64.7937952 173.309393,76.1700682 175.572227,79.8150444 Z M182.574908,95.5114895 C167.818894,98.5677815 122.216133,108.793045 116.232679,108.793045 C110.249225,108.793045 78.1071963,98.8834136 70.7835842,90.624261 C70.7835842,90.624261 70.238274,89.7503589 73.0865342,89.7503589 C75.9347944,89.7503589 169.29708,85.376117 172.925229,85.376117 C176.553377,85.376117 180.007463,87.499706 182.574908,95.5114895 Z M144.594932,108.419964 C142.413691,116.943382 136.080069,130.459465 120.355143,133.267712 C120.355143,133.267712 124.262747,121.963757 127.412899,117.327277 C130.563052,112.690797 135.746219,108.880232 144.594932,108.419964 Z M167.408892,103.060301 C166.831624,109.912964 165.058346,136.825501 141.024578,144.707517 C141.024578,144.707517 147.57714,117.509087 149.258627,110.455013 C150.940114,103.40094 156.364659,104.394472 167.408892,103.060301 Z M170.188478,153.999401 L171.91824,102.460127 C171.91824,102.460127 176.599613,99.5085949 184.272714,99.5085949 C184.272714,99.5085949 194.354154,110.419868 193.990387,117.323898 C193.990387,117.323898 193.458676,130.914327 176.916464,148.924281 C172.316004,154.166342 170.188478,153.999401 170.188478,153.999401 Z" id="Path-31" fill="#8A815B" sketch:type="MSShapeGroup"></path>
    </g>
</svg>